<?xml version="1.0" standalone="no"?>
<!DOCTYPE svg PUBLIC "-//W3C//DTD SVG 20010904//EN"
 "http://www.w3.org/TR/2001/REC-SVG-20010904/DTD/svg10.dtd">
<svg version="1.0" xmlns="http://www.w3.org/2000/svg"
 width="1188.000000pt" height="936.000000pt" viewBox="0 0 1188.000000 936.000000"
 preserveAspectRatio="xMidYMid meet">

<g transform="translate(0.000000,936.000000) scale(0.100000,-0.100000)"
fill="#000000" stroke="none">
<path d="M5570 7644 c-209 -27 -441 -103 -630 -207 -675 -368 -1063 -1094
-989 -1853 64 -658 467 -1236 1064 -1524 271 -131 614 -202 905 -187 484 25
927 222 1265 562 258 260 431 582 512 953 34 158 43 460 19 632 -108 769 -652
1381 -1406 1584 -202 54 -508 71 -740 40z m438 -175 c251 -27 474 -98 676
-215 407 -235 700 -616 811 -1054 180 -711 -93 -1437 -696 -1850 -79 -54 -294
-170 -316 -170 -4 0 -7 36 -5 79 6 123 -28 219 -108 302 -24 26 -30 42 -36
107 -11 110 -9 277 6 347 14 68 52 145 80 163 10 6 81 16 157 22 231 19 364
58 449 132 83 73 163 242 226 475 28 105 31 133 32 263 1 133 -1 150 -23 198
-28 62 -93 124 -149 140 -58 18 -134 15 -262 -10 -136 -26 -365 -31 -415 -10
-16 7 -43 31 -60 53 -48 66 -194 201 -270 250 -126 83 -300 139 -428 139 -81
0 -216 -26 -308 -60 -355 -129 -717 -520 -849 -915 -43 -128 -59 -228 -60
-362 0 -219 60 -405 187 -574 29 -39 53 -72 53 -74 0 -13 -142 -45 -197 -45
-62 0 -68 2 -98 35 -45 47 -145 246 -189 376 -307 903 176 1878 1081 2179 238
79 474 105 711 79z m-223 -834 c148 -31 303 -134 435 -289 113 -134 202 -164
443 -153 l128 6 47 -33 c65 -47 139 -82 212 -102 l61 -18 -7 -55 c-8 -65 -45
-216 -71 -287 -26 -69 -66 -88 -196 -90 -87 -1 -100 -4 -122 -24 -19 -18 -25
-34 -25 -65 0 -52 28 -81 89 -91 84 -13 -23 -38 -237 -54 -159 -12 -212 -31
-273 -97 -85 -93 -121 -221 -123 -440 0 -79 -3 -143 -6 -143 -9 0 -774 361
-783 370 -5 4 23 48 61 96 247 315 341 642 243 846 -17 36 -47 80 -66 97 -99
87 -207 -23 -126 -127 42 -54 55 -103 48 -191 -14 -189 -155 -439 -367 -651
-89 -89 -132 -124 -188 -154 -50 -26 -81 -36 -97 -32 -31 8 -110 113 -151 201
-61 131 -69 174 -68 345 1 139 4 165 28 245 66 217 179 399 361 580 197 196
361 289 559 314 92 13 115 12 191 -4z m-146 -1901 c229 -108 419 -199 423
-203 8 -7 -48 -124 -61 -129 -6 -2 -765 418 -840 466 l-25 15 30 23 c16 13 35
24 43 24 7 0 201 -88 430 -196z m-155 -255 c276 -155 505 -285 510 -289 11
-11 46 -113 40 -121 -2 -4 -59 -10 -126 -13 -278 -16 -589 52 -847 184 -165
85 -367 236 -463 346 l-27 31 82 22 c45 12 132 46 192 76 61 29 116 51 124 49
8 -3 239 -131 515 -285z m791 -90 c29 -50 29 -186 -1 -226 -32 -43 -51 -41
-74 9 -32 71 -24 195 16 240 22 24 34 19 59 -23z"/>
<path d="M5993 6305 c-59 -26 -82 -111 -43 -165 62 -87 200 -43 200 64 0 50
-21 83 -66 102 -41 17 -50 17 -91 -1z"/>
<path d="M4303 3310 c-63 -31 -103 -74 -128 -134 -21 -49 -23 -432 -3 -452 25
-24 63 -27 88 -6 21 17 25 30 28 91 l4 71 128 0 128 0 4 -71 c3 -61 7 -74 28
-91 16 -13 32 -17 49 -13 54 13 56 20 56 233 0 196 0 197 -28 254 -66 135
-219 186 -354 118z m214 -144 c30 -32 33 -42 33 -96 l0 -60 -130 0 -130 0 0
53 c0 64 15 94 60 125 29 19 44 23 84 19 41 -4 55 -11 83 -41z"/>
<path d="M4875 3315 l-25 -24 0 -270 0 -270 26 -20 c24 -19 40 -21 181 -21 90
0 163 4 174 11 47 25 42 95 -8 118 -13 6 -73 11 -134 11 l-110 0 3 58 3 57
108 5 c93 4 111 8 123 24 8 11 14 29 14 41 0 12 -6 30 -14 41 -12 16 -30 20
-123 24 l-108 5 0 50 0 50 110 2 c139 4 150 6 165 42 13 33 2 64 -30 81 -10 5
-88 10 -175 10 -152 0 -156 -1 -180 -25z"/>
<path d="M5456 3324 c-26 -25 -28 -53 -24 -266 3 -199 4 -204 29 -243 33 -51
56 -70 102 -90 54 -22 116 -19 172 10 l49 24 35 -22 c29 -17 51 -22 108 -22
63 0 76 3 114 30 23 17 53 50 66 74 22 42 23 53 23 266 0 202 -2 223 -18 238
-27 25 -78 22 -96 -5 -13 -19 -16 -58 -16 -224 0 -182 -2 -204 -19 -225 -26
-32 -86 -32 -112 0 -17 21 -19 43 -19 225 0 228 -5 246 -64 246 -62 0 -66 -13
-66 -233 0 -107 -4 -207 -10 -222 -13 -34 -53 -49 -96 -35 -18 6 -35 18 -38
26 -3 9 -6 100 -6 204 0 183 -7 235 -33 252 -20 13 -65 9 -81 -8z"/>
<path d="M6490 3331 c-76 -25 -136 -78 -169 -151 -18 -40 -21 -66 -21 -242 l0
-197 26 -20 c33 -26 45 -26 78 0 24 19 26 27 26 90 l0 70 133 -3 132 -3 5 -72
c5 -78 11 -88 52 -98 21 -5 33 -1 52 19 26 25 26 26 26 204 0 201 -10 254 -62
316 -48 58 -109 88 -186 92 -37 2 -78 0 -92 -5z m136 -136 c42 -18 77 -85 72
-143 l-3 -37 -130 0 -130 0 -3 45 c-6 111 90 179 194 135z"/>
<path d="M7166 3325 c-59 -21 -108 -66 -141 -130 l-30 -59 0 -199 c0 -199 0
-199 24 -218 17 -14 33 -18 50 -14 51 12 53 21 52 188 -1 191 7 240 47 280 42
42 112 49 162 15 56 -38 60 -54 60 -256 0 -183 0 -183 26 -208 19 -20 31 -24
52 -19 39 9 52 32 52 89 2 196 -3 337 -13 371 -15 54 -108 147 -163 163 -54
16 -129 15 -178 -3z"/>
<path d="M637 2234 c-13 -13 -8 -309 5 -322 8 -8 46 -12 105 -12 77 0 95 3
100 16 9 25 -16 34 -94 34 -87 0 -82 -9 -86 164 -2 111 -9 140 -30 120z"/>
<path d="M1094 2221 c-128 -58 -133 -227 -8 -298 72 -42 166 -20 216 49 18 26
23 46 23 98 0 79 -26 122 -89 151 -52 23 -90 23 -142 0z m137 -48 c16 -9 36
-33 45 -51 52 -110 -81 -222 -183 -155 -71 47 -68 168 5 207 37 20 98 20 133
-1z"/>
<path d="M1483 2225 c-7 -20 110 -306 131 -320 11 -7 20 -5 30 5 21 22 138
309 130 321 -18 29 -42 -3 -89 -119 -27 -68 -54 -123 -59 -123 -5 0 -28 46
-51 103 -49 122 -62 148 -76 148 -5 0 -12 -7 -16 -15z"/>
<path d="M1957 2234 c-4 -4 -7 -81 -7 -171 0 -151 1 -164 18 -161 15 3 17 19
17 167 0 155 -6 187 -28 165z"/>
<path d="M2172 2228 c-8 -8 -12 -59 -12 -165 0 -129 2 -155 15 -160 9 -3 19
-2 23 2 4 3 9 59 12 123 l5 117 83 -122 c45 -68 88 -123 95 -123 32 0 37 24
37 171 0 120 -3 149 -15 159 -27 22 -34 -1 -37 -120 l-3 -115 -73 105 c-105
152 -106 152 -130 128z"/>
<path d="M2690 2218 c-63 -32 -90 -77 -90 -148 0 -201 285 -233 330 -37 11 50
-3 59 -92 55 -57 -2 -73 -6 -73 -18 0 -11 14 -16 58 -18 66 -3 74 -20 33 -65
-57 -62 -164 -48 -199 26 -21 44 -21 70 -1 113 23 47 64 67 123 60 86 -11 94
-11 98 2 6 16 -72 51 -112 52 -17 0 -51 -10 -75 -22z"/>
<path d="M3653 2221 c-124 -57 -126 -238 -3 -301 49 -25 105 -26 150 -2 65 36
43 64 -31 39 -49 -17 -90 -9 -125 24 -57 53 -56 128 3 179 32 28 40 31 82 26
95 -11 104 -11 108 2 6 16 -72 52 -112 52 -16 0 -49 -9 -72 -19z"/>
<path d="M4015 2228 c-3 -8 -4 -83 -3 -168 3 -130 5 -155 18 -155 11 0 16 16
20 60 3 33 9 66 13 73 9 13 121 17 151 6 12 -5 16 -21 16 -69 0 -68 14 -91 37
-60 20 29 19 298 -2 315 -24 20 -34 2 -37 -70 l-3 -65 -74 -3 c-44 -2 -78 1
-85 8 -6 6 -13 39 -16 72 -5 58 -23 87 -35 56z"/>
<path d="M4463 2233 c-10 -3 -13 -46 -13 -163 0 -135 2 -159 16 -164 32 -12
181 -6 193 8 19 23 -9 35 -89 38 l-75 3 -3 39 c-4 48 6 56 81 56 50 0 57 2 57
20 0 17 -8 19 -67 22 l-68 3 0 45 0 45 75 3 c80 3 108 15 89 38 -8 10 -36 14
-98 13 -47 0 -92 -3 -98 -6z"/>
<path d="M4853 2234 c-10 -4 -13 -48 -13 -171 0 -151 1 -164 18 -161 12 2 18
16 22 48 5 42 7 45 37 48 28 3 36 -3 70 -47 36 -50 73 -67 73 -35 0 8 -11 30
-25 48 -28 37 -31 51 -12 63 66 40 58 160 -12 193 -29 13 -139 23 -158 14z
m148 -62 c28 -23 30 -73 4 -102 -15 -17 -29 -20 -69 -18 l-51 3 -3 54 c-2 29
-1 60 2 67 8 21 89 18 117 -4z"/>
<path d="M5252 2228 c-14 -14 -17 -295 -3 -317 5 -8 16 -11 25 -8 14 6 16 27
14 168 -3 160 -9 184 -36 157z"/>
<path d="M5534 2230 c-26 -10 -64 -57 -64 -79 0 -31 32 -62 101 -97 63 -31 70
-38 67 -62 -5 -40 -47 -57 -90 -38 -18 9 -41 21 -50 28 -14 10 -20 10 -29 1
-10 -10 -8 -17 7 -34 74 -82 214 -53 214 44 0 38 -33 71 -105 105 -66 32 -80
53 -53 80 19 19 77 14 106 -8 23 -18 27 -19 40 -6 40 39 -78 93 -144 66z"/>
<path d="M5867 2233 c-4 -3 -7 -78 -7 -165 0 -134 2 -160 15 -165 24 -9 30 3
35 75 l5 67 80 0 80 0 3 -68 c2 -50 7 -70 18 -74 9 -3 20 0 25 8 15 23 11 305
-4 317 -23 20 -36 -3 -39 -68 l-3 -65 -80 0 -80 0 -3 60 c-4 69 -22 101 -45
78z"/>
<path d="M6305 2228 c-3 -8 -4 -83 -3 -168 3 -130 5 -155 18 -155 13 0 15 25
15 164 0 123 -3 165 -12 168 -7 3 -15 -2 -18 -9z"/>
<path d="M6526 2224 c-13 -13 -16 -42 -16 -157 0 -146 6 -174 34 -164 13 5 16
25 16 122 0 63 3 115 8 115 4 0 41 -52 82 -115 41 -63 81 -117 89 -120 34 -14
41 13 41 171 0 154 -6 178 -35 154 -11 -9 -15 -42 -17 -123 l-3 -112 -83 123
c-46 67 -87 122 -92 122 -5 0 -16 -7 -24 -16z"/>
<path d="M7064 2230 c-18 -6 -48 -28 -67 -49 -60 -67 -62 -152 -4 -218 59 -67
139 -81 213 -38 46 27 88 97 82 137 -3 22 -8 23 -85 26 -77 3 -83 1 -83 -17 0
-17 8 -20 57 -23 31 -2 58 -8 60 -14 7 -20 -47 -73 -83 -83 -47 -13 -97 3
-128 40 -20 24 -26 41 -26 81 0 44 4 54 35 85 32 32 38 35 82 30 27 -3 63 -9
81 -12 25 -6 32 -4 32 9 0 38 -100 66 -166 46z"/>
<path d="M7922 2232 c-9 -7 -12 -47 -10 -168 3 -133 5 -159 18 -159 11 0 16
15 18 60 2 32 8 65 13 72 6 7 38 13 72 15 47 2 62 7 62 18 0 11 -15 16 -60 18
-66 3 -85 14 -85 47 0 50 8 55 80 55 76 0 100 6 100 25 0 7 -7 16 -16 19 -23
9 -177 7 -192 -2z"/>
<path d="M8382 2227 c-72 -23 -123 -120 -102 -197 38 -140 218 -175 302 -58
33 48 33 149 -1 197 -42 59 -123 83 -199 58z m129 -54 c61 -36 75 -128 27
-181 -63 -68 -149 -61 -199 15 -36 54 -15 138 43 169 33 19 95 17 129 -3z"/>
<path d="M8798 2229 c-16 -9 -18 -27 -18 -157 0 -150 6 -179 34 -169 13 5 16
28 18 128 l3 122 84 -126 c45 -70 88 -127 95 -127 31 0 36 25 36 176 0 154 -6
178 -35 154 -11 -9 -15 -42 -17 -123 l-3 -112 -81 119 c-44 66 -85 121 -90
123 -5 1 -17 -2 -26 -8z"/>
<path d="M9233 2229 c-18 -18 -18 -300 -1 -317 18 -18 117 -14 164 7 55 25 87
71 92 136 9 107 -53 172 -174 181 -50 4 -73 2 -81 -7z m175 -73 c34 -31 37
-39 37 -86 0 -47 -3 -55 -37 -86 -32 -29 -45 -34 -87 -34 -60 0 -61 3 -61 120
0 117 1 120 61 120 42 0 55 -5 87 -34z"/>
<path d="M9672 2228 c-15 -15 -17 -281 -2 -309 9 -17 22 -19 106 -19 76 0 96
3 101 15 9 25 -3 30 -85 35 l-77 5 -5 139 c-5 137 -12 160 -38 134z"/>
<path d="M10067 2234 c-4 -4 -7 -81 -7 -171 0 -151 1 -164 18 -161 15 3 17 19
17 167 0 155 -6 187 -28 165z"/>
<path d="M10282 2228 c-8 -8 -12 -59 -12 -165 0 -129 2 -155 15 -160 9 -3 19
-2 23 2 4 3 9 59 12 123 l5 117 83 -122 c45 -68 88 -123 95 -123 32 0 37 24
37 171 0 107 -3 149 -13 157 -28 23 -36 -3 -39 -118 l-3 -115 -73 105 c-105
152 -106 152 -130 128z"/>
<path d="M10804 2221 c-55 -25 -87 -71 -92 -136 -16 -198 252 -256 324 -70 26
69 18 76 -78 73 -66 -2 -83 -6 -83 -18 0 -11 13 -16 50 -18 75 -4 78 -6 60
-42 -21 -41 -55 -61 -105 -62 -51 -1 -88 24 -114 76 -16 32 -17 44 -7 76 6 21
26 50 43 65 27 23 38 26 77 21 95 -11 104 -11 108 2 6 16 -72 52 -112 52 -16
0 -48 -9 -71 -19z"/>
<path d="M3114 1933 c-3 -10 -11 -31 -16 -46 -8 -20 -8 -31 0 -39 16 -16 49
15 54 52 6 43 -26 70 -38 33z"/>
<path d="M7471 1937 c-6 -6 -11 -18 -11 -27 0 -9 -5 -21 -12 -28 -14 -14 7
-43 27 -36 13 5 35 55 35 79 0 18 -25 26 -39 12z"/>
</g>
</svg>
